HIERARCHY
ROOT RootJoint
{
    OFFSET   0.000000   0.000000   0.000000
    CHANNELS 6 Xposition Yposition Zposition Xrotation Yrotation Zrotation
    JOINT pelvis_lowerback
    {
        OFFSET   0.000000   0.093605   0.000000
        CHANNELS 3 Xrotation Yrotation Zrotation
        JOINT lowerback_torso
        {
            OFFSET   0.000000   0.100000   0.000000
            CHANNELS 3 Xrotation Yrotation Zrotation
            JOINT torso_head
            {
                OFFSET   0.000000   0.282350   0.000000
                CHANNELS 3 Xrotation Yrotation Zrotation
                End Site
                {
                    OFFSET   0.000000   0.192650   0.000000
                }
            }
            JOINT rTorso_Clavicle
            {
                OFFSET  -0.001000   0.157500   0.000000
                CHANNELS 3 Xrotation Yrotation Zrotation
                JOINT rShoulder
                {
                    OFFSET  -0.117647   0.000000   0.000000
                    CHANNELS 3 Xrotation Yrotation Zrotation
                    JOINT rElbow
                    {
                        OFFSET  -0.245000   0.000000   0.000000
                        CHANNELS 3 Xrotation Yrotation Zrotation
                        JOINT rWrist
                        {
                            OFFSET  -0.240000   0.000000   0.000000
                            CHANNELS 3 Xrotation Yrotation Zrotation
                            End Site
                            {
                                OFFSET  -0.116353  -0.002500   0.000000
                            }
                        }
                    }
                }
            }
            JOINT lTorso_Clavicle
            {
                OFFSET   0.001000   0.157500   0.000000
                CHANNELS 3 Xrotation Yrotation Zrotation
                JOINT lShoulder
                {
                    OFFSET   0.117647   0.000000   0.000000
                    CHANNELS 3 Xrotation Yrotation Zrotation
                    JOINT lElbow
                    {
                        OFFSET   0.245000   0.000000   0.000000
                        CHANNELS 3 Xrotation Yrotation Zrotation
                        JOINT lWrist
                        {
                            OFFSET   0.240000   0.000000   0.000000
                            CHANNELS 3 Xrotation Yrotation Zrotation
                            End Site
                            {
                                OFFSET   0.116353  -0.002500   0.000000
                            }
                        }
                    }
                }
            }
        }
    }
    JOINT rHip
    {
        OFFSET  -0.100000  -0.051395   0.000000
        CHANNELS 3 Xrotation Yrotation Zrotation
        JOINT rKnee
        {
            OFFSET   0.000000  -0.410000   0.000000
            CHANNELS 3 Xrotation Yrotation Zrotation
            JOINT rAnkle
            {
                OFFSET   0.000000  -0.390000   0.000000
                CHANNELS 3 Xrotation Yrotation Zrotation
                JOINT rToeJoint
                {
                    OFFSET   0.000000  -0.050000   0.130000
                    CHANNELS 3 Xrotation Yrotation Zrotation
                    End Site
                    {
                        OFFSET  -0.010000   0.002000   0.060000
                    }
                }
            }
        }
    }
    JOINT lHip
    {
        OFFSET   0.100000  -0.051395   0.000000
        CHANNELS 3 Xrotation Yrotation Zrotation
        JOINT lKnee
        {
            OFFSET   0.000000  -0.410000   0.000000
            CHANNELS 3 Xrotation Yrotation Zrotation
            JOINT lAnkle
            {
                OFFSET   0.000000  -0.390000   0.000000
                CHANNELS 3 Xrotation Yrotation Zrotation
                JOINT lToeJoint
                {
                    OFFSET   0.000000  -0.050000   0.130000
                    CHANNELS 3 Xrotation Yrotation Zrotation
                    End Site
                    {
                        OFFSET   0.010000   0.002000   0.060000
                    }
                }
            }
        }
    }
}
MOTION
Frames: 5
Frame Time:   0.008333
 -1.885144   0.888098   4.295593  -2.404860  -1.804628  -0.681347   7.842727  -0.603188   1.783691  -2.382551  -1.279051   0.891737  -3.353450  -1.520505   2.658078  -4.193227  14.632264 -10.355654 -16.358779  36.068277  21.419329  -0.004402  84.187996   0.003645  -8.990902   8.718142   3.514532  -4.526018  -6.781679   8.028315 -28.062943   3.524408 -17.951221  -0.000195 -67.620172   0.000035 -13.856460 -10.440182  10.907566 -27.889906  -1.021932  -7.723679  51.095595   0.021239  -0.005489 -10.856859  -6.814607   2.172919   1.313895   0.000110   0.000092   0.067474  -2.285893   5.040412  26.123691   0.000743   0.004027 -23.956310  -2.700427  -1.708475  -0.180926  -0.000064   0.000015
 -1.885520   0.889748   4.290907  -2.360280  -1.748765  -0.648478   7.752386  -0.627377   1.759525  -2.386349  -1.299680   0.976291  -3.454275  -1.557017   2.684398  -4.140021  14.715140 -10.345656 -16.370258  36.171348  21.399183  -0.002564  83.900211   0.001834  -8.994098   8.690445   3.507980  -4.486609  -6.642762   8.025514 -28.023530   3.593633 -17.892726  -0.000505 -67.814729   0.000031 -13.875049 -10.308436  10.911456 -27.103506  -0.798937  -8.057418  52.128457   0.021160  -0.004704 -10.907869  -6.774548   1.861695   1.293693  -0.000086   0.000066  -0.062981  -2.481307   5.003819  25.572256   0.000829   0.003799 -23.335556  -2.567444  -1.569517  -0.146863  -0.000094   0.000012
 -1.885978   0.891264   4.286346  -2.292999  -1.685456  -0.604098   7.636719  -0.643863   1.729036  -2.410111  -1.318008   1.054903  -3.549743  -1.593108   2.706047  -4.094447  14.795495 -10.343167 -16.383194  36.266207  21.376248  -0.000824  83.624450   0.000192  -8.995079   8.620185   3.490613  -4.453070  -6.512245   8.039396 -27.990463   3.649896 -17.829947  -0.000917 -68.007770  -0.000103 -13.882666 -10.235068  10.891892 -26.292922  -0.570634  -8.421569  53.065430   0.020921  -0.004109 -10.953114  -6.736534   1.570305   1.295984  -0.000049   0.000053  -0.222352  -2.671121   4.965375  25.048676   0.000896   0.003515 -22.738888  -2.448423  -1.438272  -0.112405  -0.000119   0.000010
 -1.886536   0.892661   4.281879  -2.208285  -1.642530  -0.559376   7.508629  -0.645858   1.699399  -2.451482  -1.324158   1.129963  -3.640847  -1.626494   2.725565  -4.056189  14.875408 -10.344390 -16.399198  36.357216  21.353116   0.000689  83.366590  -0.001196  -8.995301   8.544513   3.463571  -4.426141  -6.386906   8.063146 -27.963698   3.700494 -17.763280  -0.001331 -68.190409  -0.000298 -13.885090 -10.188890  10.881260 -25.487990  -0.356017  -8.793422  53.940884   0.020393  -0.003857 -10.994815  -6.700857   1.297942   1.301368   0.000005   0.000044  -0.402457  -2.843181   4.934621  24.553805   0.000971   0.003259 -22.168372  -2.327364  -1.314166  -0.077652  -0.000139   0.000008
 -1.887206   0.893952   4.277488  -2.111535  -1.626146  -0.517895   7.375286  -0.635044   1.671814  -2.504260  -1.318006   1.202607  -3.727360  -1.657415   2.743888  -4.023869  14.955435 -10.347763 -16.418039  36.445468  21.331024   0.001876  83.126564  -0.002261  -8.995585   8.475233   3.428797  -4.404776  -6.265158   8.093170 -27.941981   3.748083 -17.694160  -0.001684 -68.361593  -0.000495 -13.885120 -10.155477  10.885935 -24.700219  -0.159770  -9.163776  54.763965   0.019589  -0.003870 -11.033263  -6.667329   1.043569   1.307911   0.000056   0.000035  -0.596718  -2.995689   4.915165  24.085601   0.001058   0.003045 -21.622806  -2.199793  -1.195990  -0.042290  -0.000157   0.000007
